<?xml version="1.0" encoding="utf-8"?>

<!DOCTYPE svg PUBLIC "-//W3C//DTD SVG 1.1//EN" "http://www.w3.org/Graphics/SVG/1.1/DTD/svg11.dtd">
<svg version="1.1" id="Capa_1" xmlns="http://www.w3.org/2000/svg" xmlns:xlink="http://www.w3.org/1999/xlink" x="0px" y="0px"
	 width="512px" height="512px" viewBox="0 0 512 512" enable-background="new 0 0 512 512" xml:space="preserve">
<g>
	<path fill="#940000" d="M512,85.339C512,40.499,471.518,0,426.666,0H85.333C40.482,0,0,40.499,0,85.339v341.322
		C0,471.501,40.482,512,85.339,512H256V318.578h-62.578v-85.333H256v-33.246c0-57.338,43.053-108.976,96-108.976h68.978v85.333H352
		c-7.55,0-16.356,9.165-16.356,22.892v33.997h85.334v85.333h-85.334V512h91.022C471.518,512,512,471.501,512,426.661V85.339"/>
	<path fill="#9C1212" d="M119.05,2.168C74.396,2.168,24.476,20.232,11.5,67.5c-3,10.167-5,20.361-6.277,30.58
		c-6.384,51.091,5.31,102.778,0.474,154.567c-0.295,11.278-0.582,22.544-0.838,33.806C3.834,331.5,3.278,376.5,5.5,421.5
		c1.976,36.558,28.355,77.018,63.709,77.018c0.428,0,0.86-0.006,1.291-0.018c32,0,23-51,23-78
		c-0.694-48.611-7.176-97.223-9.333-145.694c-0.431-9.698-0.69-19.39-0.694-29.102c-3.991-22.068-2.096-44.335,4.431-65.208
		c3.264-10.436,7.684-20.521,13.097-30.032c37.712-65.087,107.214-83.229,178.064-83.229c39.054,0,78.518,5.512,113.29,11.713
		c14.302,2.586,28.271,5.288,41.717,7.821c17.441,2.355,34.069,4.409,49.429,5.729c0.508,0.039,1.016,0.058,1.525,0.058
		c12.54,0,25.33-11.66,21.775-26.467c-5.162-11.824-11.602-21.482-19.074-29.347c-7.473-7.865-15.979-13.936-25.276-18.61
		c-11.606-6.988-23.923-10.933-36.577-13.136c-11.85-2.062-23.994-2.593-36.152-2.593c-0.827,0-1.656,0.002-2.482,0.007
		c-48.542,2.314-96.831,4.279-145.397,4.279c-37.214,0-74.598-1.155-112.341-4.192C126.061,2.28,122.575,2.168,119.05,2.168"/>
	<path fill="#8C0000" d="M213.339,477.308c-21.371,0-42.667,0.941-63.839,4.412c32.113,23.396,68.637,29.746,106.5,30.247v-33.88
		c-1.541-0.039-3.081-0.079-4.621-0.119C238.676,477.638,225.996,477.308,213.339,477.308 M476.5,102.72
		c-1.649,9.809-2.967,19.678-4.034,29.592c-1.067,9.923-1.884,19.891-2.492,29.98c-0.31,11.678-0.282,23.475-0.113,35.338
		c-4.36,82.089,15.64,183.089-48.574,244.733c-9.179,7.785-19.437,14.42-30.479,19.769c-16.96,8.415-36.506,11.465-55.163,14.406
		v31.768c11.716-0.683,23.355-1.185,34.83-1.185c6.738,0,13.419,0.173,20.024,0.585c1.023,0.033,2.042,0.05,3.058,0.05
		c9.571,0,18.792-1.462,27.558-4.153c8.08-2.481,15.775-6.008,23.007-10.405c7.232-4.397,13.994-9.667,20.168-15.626
		C528.5,394.72,501.5,276.72,495.542,179.08c-1.663-10.554-3.28-20.878-4.741-30.901c-1.821-12.731-3.604-25.357-5.23-37.851
		C484.5,105.72,480.5,104.72,476.5,102.72"/>
</g>
</svg>
